HIERARCHY
ROOT Hips
{
	OFFSET 0.000000 0.000000 0.000000 
	CHANNELS 6 Xposition Yposition Zposition Zrotation Yrotation Xrotation
	JOINT LeftUpLeg
	{
		OFFSET 1.363060 -1.794630 0.839290 
		CHANNELS 3 Zrotation Yrotation Xrotation
		JOINT LeftLeg
		{
			OFFSET 2.448110 -6.726130 0.000000 
			CHANNELS 3 Zrotation Yrotation Xrotation
			JOINT LeftFoot
			{
				OFFSET 2.562200 -7.039590 0.000000 
				CHANNELS 3 Zrotation Yrotation Xrotation
				JOINT LeftToeBase
				{
					OFFSET 0.157640 -0.433110 2.322550 
					CHANNELS 3 Zrotation Yrotation Xrotation
					End Site
					{
						OFFSET 0.000000 0.000000 0.000000 
					}
				}
			}
		}
	}
	JOINT RightUpLeg
	{
		OFFSET -1.305520 -1.794630 0.839290 
		CHANNELS 3 Zrotation Yrotation Xrotation
		JOINT RightLeg
		{
			OFFSET -2.542530 -6.985550 0.000000 
			CHANNELS 3 Zrotation Yrotation Xrotation
			JOINT RightFoot
			{
				OFFSET -2.568260 -7.056230 0.000000 
				CHANNELS 3 Zrotation Yrotation Xrotation
				JOINT RightToeBase
				{
					OFFSET -0.164730 -0.452590 2.363150 
					CHANNELS 3 Zrotation Yrotation Xrotation
					End Site
					{
						OFFSET 0.000000 0.000000 0.000000 
					}
				}
			}
		}
	}
	JOINT Spine
	{
		OFFSET 0.028270 2.035590 -0.193380 
		CHANNELS 3 Zrotation Yrotation Xrotation
		JOINT Spine1
		{
			OFFSET 0.056720 2.048850 -0.042750 
			CHANNELS 3 Zrotation Yrotation Xrotation
			JOINT Neck1
			{
				OFFSET -0.054170 1.746240 0.172020 
				CHANNELS 3 Zrotation Yrotation Xrotation
				JOINT Head
				{
					OFFSET 0.104070 1.761360 -0.123970 
					CHANNELS 3 Zrotation Yrotation Xrotation
					End Site
					{
						OFFSET 0.000000 0.000000 0.000000 
					}
				}
			}
			JOINT LeftArm
			{
				OFFSET 3.362410 1.200890 -0.311210 
				CHANNELS 3 Zrotation Yrotation Xrotation
				JOINT LeftForeArm
				{
					OFFSET 4.983000 -0.000000 -0.000000 
					CHANNELS 3 Zrotation Yrotation Xrotation
					JOINT LeftHand
					{
						OFFSET 3.483560 -0.000000 -0.000000 
						CHANNELS 3 Zrotation Yrotation Xrotation
						JOINT LeftHandIndex1
						{
							OFFSET 0.715260 -0.000000 -0.000000 
							CHANNELS 3 Zrotation Yrotation Xrotation
							End Site
							{
								OFFSET 0.000000 0.000000 0.000000 
							}
						}
					}
				}
			}
			JOINT RightArm
			{
				OFFSET -3.136600 1.374050 -0.404650 
				CHANNELS 3 Zrotation Yrotation Xrotation
				JOINT RightForeArm
				{
					OFFSET -5.241900 -0.000000 -0.000000 
					CHANNELS 3 Zrotation Yrotation Xrotation
					JOINT RightHand
					{
						OFFSET -3.444170 -0.000000 -0.000000 
						CHANNELS 3 Zrotation Yrotation Xrotation
						JOINT RightHandIndex1
						{
							OFFSET -0.622530 -0.000000 -0.000000 
							CHANNELS 3 Zrotation Yrotation Xrotation
							End Site
							{
								OFFSET 0.000000 0.000000 0.000000 
							}
						}
					}
				}
			}
		}
	}
}
MOTION
Frames: 14
Frame Time: 0.041667
10.577664 17.880259 6.057293 41.070959 -88.271693 -33.196468 -18.964587 -4.169398 -2.673843 -0.785009 4.680069 11.467540 0.894554 -1.738172 0.876597 0.018700 0.882800 2.426400 10.967928 1.956368 -33.511328 -0.956172 -8.575333 22.142443 4.435416 -21.201045 0.026294 -0.144600 -2.450700 6.752900 1.119394 -1.600650 -3.353166 6.836283 -1.120476 1.507938 8.723822 3.018968 2.039017 3.646800 1.852500 4.504600 -95.088733 -19.458830 48.357177 24.149889 -42.947516 -7.718927 1.139933 2.570324 18.009572 -7.125000 0.000000 0.000000 92.207179 -1.795059 -5.892918 -5.738502 14.022833 -0.722624 -0.320717 0.703022 31.669513 7.125000 0.000000 0.000000 
10.449319 17.864052 6.047227 42.413172 -88.081607 -34.166905 -19.069463 -4.030454 -2.631014 -0.786253 4.660907 11.424202 0.962390 -2.092541 0.652695 0.018100 0.868700 2.387500 10.494697 2.623742 -33.199350 -0.558390 -7.658728 19.413403 4.413051 -21.164328 0.365852 -0.118200 -2.216500 6.104300 1.162364 -1.728432 -3.343000 6.915320 -1.193882 1.566465 8.633234 3.220166 1.995681 3.595100 1.944800 4.470900 -95.019936 -19.337088 48.345795 25.709893 -44.261169 -8.465393 1.088730 2.591991 15.896867 -7.125000 0.000000 0.000000 92.264728 -2.345348 -5.344940 -5.909144 14.363781 -0.785081 -0.342103 0.686561 30.267581 7.125000 0.000000 0.000000 
10.319564 17.846838 6.036053 43.357133 -87.904538 -34.740239 -19.143398 -3.890430 -2.588319 -0.786339 4.647513 11.395180 1.031767 -2.454502 0.427544 0.017300 0.848300 2.331400 9.965627 3.487200 -32.794312 -0.224376 -6.781595 16.863088 4.434225 -21.229177 0.261462 -0.089400 -1.928000 5.306700 1.202245 -1.854818 -3.330784 6.970134 -1.266368 1.635439 8.547201 3.395434 1.972923 3.541000 2.025700 4.450300 -94.928515 -19.212188 48.267603 27.268844 -45.522682 -9.238803 1.028570 2.610115 14.012872 -7.125000 0.000000 0.000000 92.326585 -2.812159 -4.960313 -6.049767 14.643620 -0.836272 -0.360368 0.672554 29.088909 7.125000 0.000000 0.000000 
10.188702 17.829021 6.023772 43.975300 -87.745687 -34.998354 -19.186809 -3.749054 -2.538847 -0.784815 4.642671 11.388235 1.101211 -2.816527 0.199871 0.015900 0.815200 2.240400 9.413732 4.490418 -32.339615 0.042477 -5.980863 14.581171 4.500546 -21.399225 -0.295397 -0.061400 -1.598500 4.397200 1.238583 -1.973945 -3.309404 7.000056 -1.335554 1.737849 8.458414 3.545928 1.950933 3.481500 2.094900 4.433000 -94.827206 -19.114607 48.133707 28.800619 -46.713632 -10.024809 0.961701 2.626091 12.418944 -7.125000 0.000000 0.000000 92.392288 -3.162720 -4.770029 -6.149028 14.841367 -0.873089 -0.374886 0.661309 28.185804 7.125000 0.000000 0.000000 
10.057136 17.810600 6.010787 44.398564 -87.601380 -35.078063 -19.212736 -3.620508 -2.482121 -0.780695 4.651041 11.415517 1.168580 -3.168149 -0.033507 0.014200 0.769800 2.115600 8.888000 5.518092 -31.920913 0.240781 -5.303020 12.681084 4.597758 -21.643315 -1.208537 -0.037300 -1.246900 3.428400 1.272698 -2.090963 -3.281483 7.010924 -1.403409 1.857093 8.358786 3.679978 1.935235 3.416700 2.156100 4.424800 -94.719783 -19.036929 47.940066 30.304555 -47.835334 -10.820631 0.890059 2.639112 11.156977 -7.125000 0.000000 0.000000 92.451977 -3.404683 -4.743945 -6.207757 14.958657 -0.895832 -0.385589 0.653021 27.558269 7.125000 0.000000 0.000000 
9.924764 17.791675 5.997298 44.851774 -87.478637 -35.215328 -19.231121 -3.499436 -2.410001 -0.773591 4.672789 11.478371 1.230968 -3.494455 -0.271428 0.012000 0.706000 1.940100 8.471984 6.404122 -31.634018 0.373523 -4.796913 11.282152 4.695195 -21.884933 -2.276057 -0.020200 -0.917200 2.520900 1.301421 -2.192204 -3.251441 6.998804 -1.462109 1.967157 8.254669 3.800410 1.909989 3.351100 2.210100 4.414200 -94.605483 -18.966706 47.726099 31.759739 -48.874595 -11.610450 0.816518 2.649377 10.231309 -7.125000 0.000000 0.000000 92.505072 -3.569702 -4.852676 -6.234347 15.012605 -0.907151 -0.393140 0.647480 27.172653 7.125000 0.000000 0.000000 
9.791990 17.772549 5.983608 45.447057 -87.377030 -35.530832 -19.252285 -3.388804 -2.317055 -0.763005 4.709670 11.581891 1.285489 -3.779370 -0.517186 0.009200 0.619200 1.701500 8.248201 6.976312 -31.563167 0.446732 -4.501332 10.475851 4.757193 -22.024177 -3.227850 -0.010200 -0.651700 1.790900 1.324268 -2.277219 -3.220405 6.966577 -1.511160 2.057247 8.147398 3.914573 1.875172 3.288700 2.260600 4.402500 -94.493669 -18.889137 47.481616 33.166747 -49.836454 -12.392228 0.744990 2.654090 9.655592 -7.125000 0.000000 0.000000 92.549709 -3.651119 -5.141380 -6.220117 14.985875 -0.904956 -0.395734 0.645072 27.069650 7.125000 0.000000 0.000000 
9.658410 17.753725 5.969918 46.376516 -87.301239 -36.223820 -19.289366 -3.279781 -2.193088 -0.749064 4.759373 11.719784 1.329658 -4.009239 -0.769740 0.006400 0.517200 1.421100 8.262723 7.144693 -31.733717 0.467687 -4.430800 10.290226 4.757945 -21.980631 -3.803010 -0.004800 -0.446100 1.225800 1.341615 -2.345600 -3.184041 6.919749 -1.551367 2.140674 8.039964 4.030643 1.830708 3.234600 2.311800 4.391900 -94.390634 -18.810565 47.204388 34.512249 -50.716892 -13.156830 0.680339 2.650945 9.408473 -7.125000 0.000000 0.000000 92.578749 -3.666197 -5.506581 -6.181986 14.912860 -0.893898 -0.394270 0.646625 27.158510 7.125000 0.000000 0.000000 
9.523723 17.735405 5.956127 47.683917 -87.252745 -37.339252 -19.342583 -3.167994 -2.034604 -0.731856 4.820313 11.888082 1.362298 -4.178046 -1.023278 0.003700 0.390600 1.073300 8.490747 6.973023 -32.095281 0.443217 -4.565753 10.666061 4.702188 -21.766858 -3.923487 -0.003700 -0.390300 1.072300 1.354762 -2.396941 -3.145762 6.865785 -1.582062 2.205097 7.921032 4.154602 1.772163 3.180800 2.365600 4.375400 -94.293886 -18.690872 46.894515 35.813384 -51.532163 -13.911530 0.626810 2.637308 9.453497 -7.125000 0.000000 0.000000 92.585775 -3.622156 -5.988965 -6.112422 14.777874 -0.871585 -0.388423 0.652301 27.464125 7.125000 0.000000 0.000000 
9.387626 17.718493 5.941732 49.326283 -87.227253 -38.833619 -19.410394 -3.061634 -1.836316 -0.711459 4.891844 12.085413 1.382307 -4.278126 -1.275824 0.001300 0.231500 0.636000 8.835150 6.647600 -32.524486 0.383172 -4.844417 11.430265 4.619495 -21.489821 -3.613114 -0.006900 -0.535000 1.470000 1.366849 -2.435719 -3.105801 6.821174 -1.606507 2.252340 7.801969 4.285341 1.711752 3.135500 2.422200 4.360800 -94.214740 -18.528219 46.549765 37.046878 -52.273295 -14.640744 0.585998 2.614851 9.749144 -7.125000 0.000000 0.000000 92.559250 -3.533441 -6.519862 -6.021536 14.600711 -0.841273 -0.378968 0.661573 27.911940 7.125000 0.000000 0.000000 
9.250322 17.703494 5.926431 51.169733 -87.222924 -40.566671 -19.483428 -2.983745 -1.598863 -0.688350 4.973408 12.310676 1.388080 -4.302489 -1.513555 -0.000000 0.024500 0.067400 9.188758 6.357514 -32.910792 0.300087 -5.186182 12.354229 4.554157 -21.329560 -2.885853 -0.017900 -0.863200 2.372500 1.378326 -2.461003 -3.070748 6.784861 -1.622977 2.262384 7.668217 4.417138 1.639257 3.083300 2.477400 4.334700 -94.146197 -18.288788 46.186083 38.197546 -52.936961 -15.331311 0.557965 2.584788 10.248670 -7.125000 0.000000 0.000000 92.506414 -3.432181 -7.103481 -5.915610 14.392368 -0.804373 -0.367528 0.673835 28.463342 7.125000 0.000000 0.000000 
9.111810 17.691314 5.909721 53.042718 -87.242279 -42.358295 -19.547533 -2.958323 -1.324559 -0.662487 5.065794 12.566155 1.377108 -4.237978 -1.725835 0.001400 -0.243200 -0.668200 9.486152 6.225610 -33.169839 0.209758 -5.518561 13.234542 4.541483 -21.431292 -1.867068 -0.044400 -1.360400 3.741200 1.392643 -2.475484 -3.039722 6.763650 -1.633545 2.243928 7.516024 4.552534 1.558216 3.022200 2.532700 4.301200 -94.099287 -17.981326 45.805718 39.233523 -53.512515 -15.960702 0.540420 2.550858 10.916084 -7.125000 0.000000 0.000000 92.421780 -3.300973 -7.738100 -5.794185 14.150798 -0.760764 -0.354407 0.688364 29.105552 7.125000 0.000000 0.000000 
8.971888 17.683060 5.891501 54.833321 -87.299905 -44.085872 -19.580727 -3.002677 -1.027715 -0.633422 5.172821 12.862610 1.346051 -4.067274 -1.907214 0.008000 -0.578200 -1.588800 9.717369 6.293322 -33.276504 0.127520 -5.792641 13.933338 4.600410 -21.871121 -0.710726 -0.087600 -1.909500 5.255600 1.410536 -2.475663 -3.018966 6.750617 -1.635129 2.178834 7.347534 4.691903 1.464129 2.950600 2.588000 4.253200 -94.071725 -17.580286 45.413608 40.130011 -53.994011 -16.511556 0.535119 2.513194 11.715542 -7.125000 0.000000 0.000000 92.311529 -3.169205 -8.418003 -5.661594 13.884616 -0.712528 -0.339520 0.704386 29.830487 7.125000 0.000000 0.000000 
8.829853 17.679939 5.872275 56.214807 -87.406631 -45.417990 -19.556194 -3.101579 -0.719971 -0.600493 5.296694 13.206624 1.298093 -3.810414 -2.039357 0.022800 -0.975400 -2.681200 9.930201 6.500968 -33.243658 0.061789 -5.991697 14.405781 4.725912 -22.622223 0.461006 -0.137200 -2.387200 6.577000 1.435806 -2.462431 -3.002231 6.742048 -1.628894 2.099162 7.162966 4.828704 1.367457 2.868900 2.640900 4.199100 -94.074394 -17.116137 45.028651 40.839082 -54.365236 -16.951749 0.540763 2.474767 12.596450 -7.125000 0.000000 0.000000 92.171838 -3.006627 -9.179154 -5.513485 13.585620 -0.659164 -0.322316 0.721190 30.675845 7.125000 0.000000 0.000000 
